<svg viewBox="26.50 40.50 347.00 146.00" fill="none" xmlns="http://www.w3.org/2000/svg" class="h-full w-auto shrink-0"><defs><linearGradient id="gold-gradient" x1="0%" y1="0%" x2="100%" y2="100%"><stop offset="0%" stop-color="#bf953f"></stop><stop offset="25%" stop-color="#fcf6ba"></stop><stop offset="50%" stop-color="#b38728"></stop><stop offset="75%" stop-color="#fbf5b7"></stop><stop offset="100%" stop-color="#aa771c"></stop></linearGradient></defs><g fill="url(#gold-gradient)" fill-rule="evenodd"><path d="M 109.00,186.50 L 108.00,186.50 L 107.00,186.50 L 106.00,186.50 L 105.00,186.50 L 104.00,186.50 L 103.00,186.50 L 102.00,186.50 L 101.00,186.50 L 100.00,186.50 L 99.00,186.50 L 98.00,186.50 L 97.00,186.50 L 96.00,186.50 L 95.00,186.50 L 94.00,186.50 L 93.00,186.50 L 92.00,186.50 L 91.00,186.50 L 90.00,186.50 L 89.00,186.50 L 88.50,186.00 L 88.00,185.50 L 87.00,185.50 L 86.00,185.50 L 85.00,185.50 L 84.00,185.50 L 83.50,185.00 L 83.00,184.50 L 82.00,184.50 L 81.00,184.50 L 80.00,184.50 L 79.50,184.00 L 79.00,183.50 L 78.00,183.50 L 77.00,183.50 L 76.00,183.50 L 75.50,183.00 L 75.00,182.50 L 74.00,182.50 L 73.50,182.00 L 73.00,181.50 L 72.00,181.50 L 71.00,181.50 L 70.50,181.00 L 70.00,180.50 L 69.00,180.50 L 68.50,180.00 L 68.00,179.50 L 67.00,179.50 L 66.50,179.00 L 66.00,178.50 L 65.00,178.50 L 64.50,178.00 L 64.00,177.50 L 63.00,177.50 L 62.50,177.00 L 62.00,176.50 L 61.00,176.50 L 60.50,176.00 L 60.00,175.50 L 59.50,175.00 L 59.00,174.50 L 58.00,174.50 L 57.50,174.00 L 57.00,173.50 L 56.50,173.00 L 56.00,172.50 L 55.50,172.00 L 55.00,171.50 L 54.00,171.50 L 53.50,171.00 L 53.00,170.50 L 52.50,170.00 L 52.00,169.50 L 51.50,169.00 L 51.00,168.50 L 50.50,168.00 L 50.00,167.50 L 49.50,167.00 L 49.00,166.50 L 48.50,166.00 L 48.00,165.50 L 47.50,165.00 L 47.00,164.50 L 46.50,164.00 L 46.00,163.50 L 45.50,163.00 L 45.00,162.50 L 44.50,162.00 L 44.00,161.50 L 43.50,161.00 L 43.00,160.50 L 42.50,160.00 L 42.00,159.50 L 41.50,159.00 L 41.50,158.00 L 41.00,157.50 L 40.50,157.00 L 40.00,156.50 L 39.50,156.00 L 39.00,155.50 L 38.50,155.00 L 38.50,154.00 L 38.00,153.50 L 37.50,153.00 L 37.00,152.50 L 36.50,152.00 L 36.50,151.00 L 36.00,150.50 L 35.50,150.00 L 35.50,149.00 L 35.00,148.50 L 34.50,148.00 L 34.50,147.00 L 34.00,146.50 L 33.50,146.00 L 33.50,145.00 L 33.00,144.50 L 32.50,144.00 L 32.50,143.00 L 32.00,142.50 L 31.50,142.00 L 31.50,141.00 L 31.00,140.50 L 30.50,140.00 L 30.50,139.00 L 30.50,138.00 L 30.00,137.50 L 29.50,137.00 L 29.50,136.00 L 29.50,135.00 L 29.00,134.50 L 28.50,134.00 L 28.50,133.00 L 28.50,132.00 L 28.50,131.00 L 28.00,130.50 L 27.50,130.00 L 27.50,129.00 L 27.50,128.00 L 27.50,127.00 L 27.50,126.00 L 27.00,125.50 L 26.50,125.00 L 26.50,124.00 L 26.50,123.00 L 26.50,122.00 L 26.50,121.00 L 26.50,120.00 L 26.50,119.00 L 26.50,118.00 L 26.50,117.00 L 26.50,116.00 L 26.50,115.00 L 26.50,114.00 L 26.50,113.00 L 26.50,112.00 L 26.50,111.00 L 26.50,110.00 L 26.50,109.00 L 26.50,108.00 L 26.50,107.00 L 26.50,106.00 L 26.50,105.00 L 26.50,104.00 L 26.50,103.00 L 26.50,102.00 L 27.00,101.50 L 27.50,101.00 L 27.50,100.00 L 27.50,99.00 L 27.50,98.00 L 27.50,97.00 L 28.00,96.50 L 28.50,96.00 L 28.50,95.00 L 28.50,94.00 L 28.50,93.00 L 29.00,92.50 L 29.50,92.00 L 29.50,91.00 L 29.50,90.00 L 30.00,89.50 L 30.50,89.00 L 30.50,88.00 L 30.50,87.00 L 31.00,86.50 L 31.50,86.00 L 31.50,85.00 L 32.00,84.50 L 32.50,84.00 L 32.50,83.00 L 33.00,82.50 L 33.50,82.00 L 33.50,81.00 L 34.00,80.50 L 34.50,80.00 L 34.50,79.00 L 35.00,78.50 L 35.50,78.00 L 35.50,77.00 L 36.00,76.50 L 36.50,76.00 L 36.50,75.00 L 37.00,74.50 L 37.50,74.00 L 38.00,73.50 L 38.50,73.00 L 38.50,72.00 L 39.00,71.50 L 39.50,71.00 L 40.00,70.50 L 40.50,70.00 L 41.00,69.50 L 41.50,69.00 L 41.50,68.00 L 42.00,67.50 L 42.50,67.00 L 43.00,66.50 L 43.50,66.00 L 44.00,65.50 L 44.50,65.00 L 45.00,64.50 L 45.50,64.00 L 46.00,63.50 L 46.50,63.00 L 46.50,62.00 L 47.00,61.50 L 47.50,61.00 L 48.00,60.50 L 49.00,60.50 L 49.50,60.00 L 50.00,59.50 L 50.50,59.00 L 51.00,58.50 L 51.50,58.00 L 52.00,57.50 L 52.50,57.00 L 53.00,56.50 L 53.50,56.00 L 54.00,55.50 L 54.50,55.00 L 55.00,54.50 L 56.00,54.50 L 56.50,54.00 L 57.00,53.50 L 57.50,53.00 L 58.00,52.50 L 59.00,52.50 L 59.50,52.00 L 60.00,51.50 L 60.50,51.00 L 61.00,50.50 L 62.00,50.50 L 62.50,50.00 L 63.00,49.50 L 64.00,49.50 L 64.50,49.00 L 65.00,48.50 L 66.00,48.50 L 66.50,48.00 L 67.00,47.50 L 68.00,47.50 L 68.50,47.00 L 69.00,46.50 L 70.00,46.50 L 70.50,46.00 L 71.00,45.50 L 72.00,45.50 L 73.00,45.50 L 73.50,45.00 L 74.00,44.50 L 75.00,44.50 L 76.00,44.50 L 76.50,44.00 L 77.00,43.50 L 78.00,43.50 L 79.00,43.50 L 79.50,43.00 L 80.00,42.50 L 81.00,42.50 L 82.00,42.50 L 83.00,42.50 L 83.50,42.00 L 84.00,41.50 L 85.00,41.50 L 86.00,41.50 L 87.00,41.50 L 88.00,41.50 L 89.00,41.50 L 89.50,41.00 L 90.00,40.50 L 91.00,40.50 L 92.00,40.50 L 93.00,40.50 L 94.00,40.50 L 95.00,40.50 L 96.00,40.50 L 97.00,40.50 L 98.00,40.50 L 99.00,40.50 L 100.00,40.50 L 101.00,40.50 L 102.00,40.50 L 103.00,40.50 L 104.00,40.50 L 105.00,40.50 L 106.00,40.50 L 107.00,40.50 L 108.00,40.50 L 108.50,41.00 L 109.00,41.50 L 110.00,41.50 L 111.00,41.50 L 112.00,41.50 L 113.00,41.50 L 114.00,41.50 L 114.50,42.00 L 115.00,42.50 L 116.00,42.50 L 117.00,42.50 L 118.00,42.50 L 118.50,43.00 L 119.00,43.50 L 120.00,43.50 L 121.00,43.50 L 121.50,44.00 L 122.00,44.50 L 123.00,44.50 L 124.00,44.50 L 124.50,45.00 L 125.00,45.50 L 126.00,45.50 L 126.50,46.00 L 127.00,46.50 L 128.00,46.50 L 128.50,47.00 L 128.50,48.00 L 128.50,49.00 L 128.50,50.00 L 128.50,51.00 L 128.50,52.00 L 128.50,53.00 L 128.50,54.00 L 128.50,55.00 L 128.50,56.00 L 128.50,57.00 L 128.50,58.00 L 128.50,59.00 L 128.50,60.00 L 128.50,61.00 L 128.50,62.00 L 128.50,63.00 L 128.50,64.00 L 128.50,65.00 L 128.50,66.00 L 128.50,67.00 L 128.50,68.00 L 128.50,69.00 L 128.50,70.00 L 128.50,71.00 L 128.50,72.00 L 128.00,72.50 L 127.50,72.00 L 127.00,71.50 L 126.00,71.50 L 125.50,71.00 L 125.00,70.50 L 124.50,70.00 L 124.00,69.50 L 123.00,69.50 L 122.50,69.00 L 122.00,68.50 L 121.00,68.50 L 120.50,68.00 L 120.00,67.50 L 119.00,67.50 L 118.50,67.00 L 118.00,66.50 L 117.00,66.50 L 116.00,66.50 L 115.50,66.00 L 115.00,65.50 L 114.00,65.50 L 113.00,65.50 L 112.50,65.00 L 112.00,64.50 L 111.00,64.50 L 110.00,64.50 L 109.50,64.00 L 109.00,63.50 L 108.00,63.50 L 107.00,63.50 L 106.00,63.50 L 105.00,63.50 L 104.00,63.50 L 103.00,63.50 L 102.00,63.50 L 101.50,63.00 L 101.00,62.50 L 100.00,62.50 L 99.00,62.50 L 98.00,62.50 L 97.00,62.50 L 96.00,62.50 L 95.50,63.00 L 95.00,63.50 L 94.00,63.50 L 93.00,63.50 L 92.00,63.50 L 91.00,63.50 L 90.00,63.50 L 89.00,63.50 L 88.50,64.00 L 88.00,64.50 L 87.00,64.50 L 86.00,64.50 L 85.00,64.50 L 84.50,65.00 L 84.00,65.50 L 83.00,65.50 L 82.00,65.50 L 81.50,66.00 L 81.00,66.50 L 80.00,66.50 L 79.00,66.50 L 78.50,67.00 L 78.00,67.50 L 77.00,67.50 L 76.50,68.00 L 76.00,68.50 L 75.00,68.50 L 74.50,69.00 L 74.00,69.50 L 73.50,70.00 L 73.00,70.50 L 72.00,70.50 L 71.50,71.00 L 71.00,71.50 L 70.50,72.00 L 70.00,72.50 L 69.00,72.50 L 68.50,73.00 L 68.00,73.50 L 67.50,74.00 L 67.00,74.50 L 66.50,75.00 L 66.00,75.50 L 65.50,76.00 L 65.00,76.50 L 64.50,77.00 L 64.00,77.50 L 63.50,78.00 L 63.00,78.50 L 62.50,79.00 L 62.00,79.50 L 61.50,80.00 L 61.00,80.50 L 60.50,81.00 L 60.00,81.50 L 59.50,82.00 L 59.00,82.50 L 58.50,83.00 L 58.50,84.00 L 58.00,84.50 L 57.50,85.00 L 57.00,85.50 L 56.50,86.00 L 56.50,87.00 L 56.00,87.50 L 55.50,88.00 L 55.00,88.50 L 54.50,89.00 L 54.50,90.00 L 54.00,90.50 L 53.50,91.00 L 53.50,92.00 L 53.00,92.50 L 52.50,93.00 L 52.50,94.00 L 52.50,95.00 L 52.00,95.50 L 51.50,96.00 L 51.50,97.00 L 51.50,98.00 L 51.00,98.50 L 50.50,99.00 L 50.50,100.00 L 50.50,101.00 L 50.50,102.00 L 50.00,102.50 L 49.50,103.00 L 49.50,104.00 L 49.50,105.00 L 49.50,106.00 L 49.50,107.00 L 49.50,108.00 L 49.00,108.50 L 48.50,109.00 L 48.50,110.00 L 48.50,111.00 L 48.50,112.00 L 48.50,113.00 L 48.50,114.00 L 48.50,115.00 L 48.50,116.00 L 48.50,117.00 L 48.50,118.00 L 49.00,118.50 L 49.50,119.00 L 49.50,120.00 L 49.50,121.00 L 49.50,122.00 L 49.50,123.00 L 49.50,124.00 L 50.00,124.50 L 50.50,125.00 L 50.50,126.00 L 50.50,127.00 L 50.50,128.00 L 51.00,128.50 L 51.50,129.00 L 51.50,130.00 L 51.50,131.00 L 52.00,131.50 L 52.50,132.00 L 52.50,133.00 L 52.50,134.00 L 53.00,134.50 L 53.50,135.00 L 53.50,136.00 L 54.00,136.50 L 54.50,137.00 L 54.50,138.00 L 55.00,138.50 L 55.50,139.00 L 56.00,139.50 L 56.50,140.00 L 56.50,141.00 L 57.00,141.50 L 57.50,142.00 L 58.00,142.50 L 58.50,143.00 L 58.50,144.00 L 59.00,144.50 L 59.50,145.00 L 60.00,145.50 L 60.50,146.00 L 61.00,146.50 L 61.50,147.00 L 62.00,147.50 L 62.50,148.00 L 63.00,148.50 L 63.50,149.00 L 64.00,149.50 L 64.50,150.00 L 65.00,150.50 L 65.50,151.00 L 66.00,151.50 L 66.50,152.00 L 67.00,152.50 L 67.50,153.00 L 68.00,153.50 L 68.50,154.00 L 69.00,154.50 L 70.00,154.50 L 70.50,155.00 L 71.00,155.50 L 71.50,156.00 L 72.00,156.50 L 73.00,156.50 L 73.50,157.00 L 74.00,157.50 L 74.50,158.00 L 75.00,158.50 L 76.00,158.50 L 76.50,159.00 L 77.00,159.50 L 78.00,159.50 L 79.00,159.50 L 79.50,160.00 L 80.00,160.50 L 81.00,160.50 L 81.50,161.00 L 82.00,161.50 L 83.00,161.50 L 84.00,161.50 L 84.50,162.00 L 85.00,162.50 L 86.00,162.50 L 87.00,162.50 L 88.00,162.50 L 88.50,163.00 L 89.00,163.50 L 90.00,163.50 L 91.00,163.50 L 92.00,163.50 L 93.00,163.50 L 94.00,163.50 L 95.00,163.50 L 96.00,163.50 L 97.00,163.50 L 97.50,164.00 L 98.00,164.50 L 99.00,164.50 L 100.00,164.50 L 100.50,164.00 L 101.00,163.50 L 102.00,163.50 L 103.00,163.50 L 104.00,163.50 L 105.00,163.50 L 106.00,163.50 L 107.00,163.50 L 108.00,163.50 L 108.50,163.00 L 109.00,162.50 L 110.00,162.50 L 111.00,162.50 L 112.00,162.50 L 112.50,162.00 L 113.00,161.50 L 114.00,161.50 L 115.00,161.50 L 115.50,161.00 L 116.00,160.50 L 117.00,160.50 L 118.00,160.50 L 118.50,160.00 L 119.00,159.50 L 120.00,159.50 L 120.50,159.00 L 121.00,158.50 L 122.00,158.50 L 122.50,158.00 L 123.00,157.50 L 124.00,157.50 L 124.50,157.00 L 125.00,156.50 L 125.50,156.00 L 126.00,155.50 L 127.00,155.50 L 127.50,155.00 L 128.00,154.50 L 128.50,155.00 L 128.50,156.00 L 128.50,157.00 L 128.50,158.00 L 128.50,159.00 L 128.50,160.00 L 128.50,161.00 L 128.50,162.00 L 128.50,163.00 L 128.50,164.00 L 128.50,165.00 L 128.50,166.00 L 128.50,167.00 L 128.50,168.00 L 128.50,169.00 L 128.50,170.00 L 128.50,171.00 L 128.50,172.00 L 128.50,173.00 L 128.50,174.00 L 128.50,175.00 L 128.50,176.00 L 128.50,177.00 L 128.50,178.00 L 128.50,179.00 L 128.50,180.00 L 128.00,180.50 L 127.50,181.00 L 127.00,181.50 L 126.00,181.50 L 125.00,181.50 L 124.50,182.00 L 124.00,182.50 L 123.00,182.50 L 122.00,182.50 L 121.50,183.00 L 121.00,183.50 L 120.00,183.50 L 119.00,183.50 L 118.50,184.00 L 118.00,184.50 L 117.00,184.50 L 116.00,184.50 L 115.00,184.50 L 114.50,185.00 L 114.00,185.50 L 113.00,185.50 L 112.00,185.50 L 111.00,185.50 L 110.00,185.50 L 109.50,186.00 L 109.00,186.50 Z"></path><path d="M 325.00,186.50 L 324.00,186.50 L 323.00,186.50 L 322.00,186.50 L 321.00,186.50 L 320.00,186.50 L 319.00,186.50 L 318.00,186.50 L 317.00,186.50 L 316.00,186.50 L 315.00,186.50 L 314.00,186.50 L 313.00,186.50 L 312.00,186.50 L 311.00,186.50 L 310.00,186.50 L 309.00,186.50 L 308.00,186.50 L 307.00,186.50 L 306.00,186.50 L 305.00,186.50 L 304.00,186.50 L 303.00,186.50 L 302.00,186.50 L 301.00,186.50 L 300.50,186.00 L 300.00,185.50 L 299.00,185.50 L 298.00,185.50 L 297.00,185.50 L 296.00,185.50 L 295.50,185.00 L 295.00,184.50 L 294.00,184.50 L 293.00,184.50 L 292.00,184.50 L 291.50,184.00 L 291.00,183.50 L 290.00,183.50 L 289.00,183.50 L 288.00,183.50 L 287.50,183.00 L 287.00,182.50 L 286.00,182.50 L 285.50,182.00 L 285.00,181.50 L 284.00,181.50 L 283.00,181.50 L 282.50,181.00 L 282.00,180.50 L 281.00,180.50 L 280.50,180.00 L 280.00,179.50 L 279.00,179.50 L 278.50,179.00 L 278.00,178.50 L 277.00,178.50 L 276.50,178.00 L 276.00,177.50 L 275.00,177.50 L 274.50,177.00 L 274.00,176.50 L 273.00,176.50 L 272.50,176.00 L 272.00,175.50 L 271.50,175.00 L 271.00,174.50 L 270.00,174.50 L 269.50,174.00 L 269.00,173.50 L 268.50,173.00 L 268.00,172.50 L 267.00,172.50 L 266.50,172.00 L 266.00,171.50 L 265.50,171.00 L 265.00,170.50 L 264.50,170.00 L 264.00,169.50 L 263.00,169.50 L 262.50,169.00 L 262.00,168.50 L 261.50,168.00 L 261.00,167.50 L 260.50,167.00 L 260.00,166.50 L 259.50,166.00 L 259.00,165.50 L 258.50,165.00 L 258.00,164.50 L 257.50,164.00 L 257.00,163.50 L 256.50,163.00 L 256.50,162.00 L 256.00,161.50 L 255.50,161.00 L 255.00,160.50 L 254.50,160.00 L 254.00,159.50 L 253.50,159.00 L 253.00,158.50 L 252.50,158.00 L 252.50,157.00 L 252.00,156.50 L 251.50,156.00 L 251.00,155.50 L 250.50,155.00 L 250.00,154.50 L 249.50,154.00 L 249.50,153.00 L 249.00,152.50 L 248.50,152.00 L 248.50,151.00 L 248.00,150.50 L 247.50,150.00 L 247.50,149.00 L 247.00,148.50 L 246.50,148.00 L 246.50,147.00 L 246.00,146.50 L 245.50,146.00 L 245.50,145.00 L 245.00,144.50 L 244.50,144.00 L 244.50,143.00 L 244.00,142.50 L 243.50,142.00 L 243.50,141.00 L 243.50,140.00 L 243.00,139.50 L 242.50,139.00 L 242.50,138.00 L 242.50,137.00 L 242.00,136.50 L 241.50,136.00 L 241.50,135.00 L 241.50,134.00 L 241.00,133.50 L 240.50,133.00 L 240.50,132.00 L 241.00,131.50 L 241.50,131.00 L 241.00,130.50 L 240.50,130.00 L 240.00,129.50 L 239.50,129.00 L 239.50,128.00 L 239.50,127.00 L 239.50,126.00 L 239.50,125.00 L 239.50,124.00 L 239.50,123.00 L 239.00,122.50 L 238.50,122.00 L 238.50,121.00 L 238.50,120.00 L 238.50,119.00 L 238.50,118.00 L 238.50,117.00 L 238.50,116.00 L 238.50,115.00 L 238.50,114.00 L 238.50,113.00 L 238.50,112.00 L 238.50,111.00 L 238.50,110.00 L 238.50,109.00 L 238.50,108.00 L 238.50,107.00 L 238.50,106.00 L 239.00,105.50 L 239.50,105.00 L 239.00,104.50 L 238.50,104.00 L 238.50,103.00 L 238.50,102.00 L 238.50,101.00 L 238.50,100.00 L 239.00,99.50 L 239.50,99.00 L 239.50,98.00 L 239.00,97.50 L 238.50,97.00 L 238.50,96.00 L 238.50,95.00 L 238.50,94.00 L 238.50,93.00 L 238.50,92.00 L 238.50,91.00 L 238.50,90.00 L 238.50,89.00 L 238.50,88.00 L 238.50,87.00 L 239.00,86.50 L 239.50,86.00 L 239.50,85.00 L 239.50,84.00 L 239.00,83.50 L 238.50,83.00 L 238.50,82.00 L 238.00,81.50 L 237.50,81.00 L 237.00,80.50 L 236.50,81.00 L 237.00,81.50 L 237.50,82.00 L 237.00,82.50 L 236.50,83.00 L 236.00,83.50 L 235.50,84.00 L 235.50,85.00 L 235.00,85.50 L 234.50,86.00 L 234.50,87.00 L 234.00,87.50 L 233.50,88.00 L 233.00,88.50 L 232.50,89.00 L 232.50,90.00 L 232.00,90.50 L 231.50,91.00 L 231.50,92.00 L 231.00,92.50 L 230.00,92.50 L 229.50,93.00 L 229.50,94.00 L 229.50,95.00 L 229.00,95.50 L 228.50,96.00 L 228.50,97.00 L 228.00,97.50 L 227.50,98.00 L 227.00,98.50 L 226.50,99.00 L 226.50,100.00 L 226.00,100.50 L 225.50,101.00 L 225.50,102.00 L 225.00,102.50 L 224.50,103.00 L 224.00,103.50 L 223.50,104.00 L 223.50,105.00 L 223.00,105.50 L 222.00,105.50 L 221.50,106.00 L 222.00,106.50 L 222.50,107.00 L 222.00,107.50 L 221.00,107.50 L 220.50,108.00 L 220.50,109.00 L 220.50,110.00 L 220.00,110.50 L 219.00,110.50 L 218.50,111.00 L 219.00,111.50 L 219.50,112.00 L 219.00,112.50 L 218.50,113.00 L 218.00,113.50 L 217.50,114.00 L 217.50,115.00 L 217.00,115.50 L 216.50,116.00 L 216.50,117.00 L 216.00,117.50 L 215.50,118.00 L 215.00,118.50 L 214.50,119.00 L 214.50,120.00 L 214.00,120.50 L 213.50,121.00 L 213.50,122.00 L 213.00,122.50 L 212.50,123.00 L 212.00,123.50 L 211.50,124.00 L 211.50,125.00 L 211.00,125.50 L 210.50,126.00 L 210.50,127.00 L 210.00,127.50 L 209.50,128.00 L 209.00,128.50 L 208.50,129.00 L 208.50,130.00 L 208.00,130.50 L 207.50,131.00 L 207.00,131.50 L 206.50,132.00 L 206.50,133.00 L 206.00,133.50 L 205.00,133.50 L 204.50,134.00 L 205.00,134.50 L 205.50,135.00 L 205.00,135.50 L 204.00,135.50 L 203.50,136.00 L 204.00,136.50 L 204.50,137.00 L 204.00,137.50 L 203.00,137.50 L 202.50,138.00 L 202.00,138.50 L 201.50,139.00 L 201.00,139.50 L 200.00,139.50 L 199.00,139.50 L 198.00,139.50 L 197.50,139.00 L 197.00,138.50 L 196.00,138.50 L 195.50,138.00 L 196.00,137.50 L 196.50,137.00 L 196.00,136.50 L 195.50,136.00 L 195.00,135.50 L 194.00,135.50 L 193.50,135.00 L 194.00,134.50 L 194.50,134.00 L 194.00,133.50 L 193.00,133.50 L 192.50,133.00 L 192.50,132.00 L 192.00,131.50 L 191.50,131.00 L 191.00,130.50 L 190.50,130.00 L 190.50,129.00 L 190.00,128.50 L 189.50,128.00 L 189.50,127.00 L 189.50,126.00 L 189.00,125.50 L 188.00,125.50 L 187.50,125.00 L 187.50,124.00 L 187.00,123.50 L 186.50,123.00 L 186.00,122.50 L 185.50,122.00 L 185.50,121.00 L 185.00,120.50 L 184.50,120.00 L 184.50,119.00 L 184.00,118.50 L 183.50,118.00 L 183.00,117.50 L 182.50,117.00 L 182.50,116.00 L 182.00,115.50 L 181.50,115.00 L 181.50,114.00 L 181.00,113.50 L 180.50,113.00 L 180.00,112.50 L 179.50,112.00 L 179.50,111.00 L 179.00,110.50 L 178.50,110.00 L 178.50,109.00 L 178.00,108.50 L 177.50,108.00 L 177.00,107.50 L 176.50,107.00 L 176.50,106.00 L 176.00,105.50 L 175.50,105.00 L 175.50,104.00 L 175.00,103.50 L 174.50,103.00 L 174.00,102.50 L 173.50,102.00 L 173.50,101.00 L 173.00,100.50 L 172.50,100.00 L 172.50,99.00 L 172.00,98.50 L 171.50,98.00 L 171.00,97.50 L 170.50,97.00 L 170.50,96.00 L 170.00,95.50 L 169.50,95.00 L 169.50,94.00 L 169.50,93.00 L 169.00,92.50 L 168.00,92.50 L 167.50,92.00 L 167.50,91.00 L 167.00,90.50 L 166.50,90.00 L 166.50,89.00 L 166.00,88.50 L 165.50,88.00 L 165.00,87.50 L 164.50,87.00 L 164.50,86.00 L 164.00,85.50 L 163.50,85.00 L 163.00,84.50 L 162.50,84.00 L 162.50,83.00 L 162.00,82.50 L 161.50,82.00 L 161.00,81.50 L 160.50,82.00 L 160.50,83.00 L 160.50,84.00 L 160.50,85.00 L 160.50,86.00 L 160.50,87.00 L 160.50,88.00 L 160.50,89.00 L 160.50,90.00 L 160.50,91.00 L 160.50,92.00 L 160.50,93.00 L 160.50,94.00 L 160.50,95.00 L 160.50,96.00 L 160.50,97.00 L 160.50,98.00 L 160.50,99.00 L 160.50,100.00 L 160.50,101.00 L 160.50,102.00 L 160.50,103.00 L 160.50,104.00 L 160.50,105.00 L 160.50,106.00 L 160.50,107.00 L 160.50,108.00 L 160.50,109.00 L 160.50,110.00 L 160.50,111.00 L 160.50,112.00 L 160.50,113.00 L 160.50,114.00 L 160.50,115.00 L 160.50,116.00 L 160.50,117.00 L 160.50,118.00 L 160.50,119.00 L 160.50,120.00 L 160.50,121.00 L 160.50,122.00 L 160.50,123.00 L 160.50,124.00 L 160.50,125.00 L 160.50,126.00 L 160.50,127.00 L 160.50,128.00 L 160.50,129.00 L 160.50,130.00 L 160.50,131.00 L 160.50,132.00 L 160.50,133.00 L 160.50,134.00 L 160.50,135.00 L 160.50,136.00 L 160.50,137.00 L 160.50,138.00 L 160.50,139.00 L 160.50,140.00 L 160.50,141.00 L 160.50,142.00 L 160.50,143.00 L 160.50,144.00 L 160.50,145.00 L 160.50,146.00 L 160.50,147.00 L 160.50,148.00 L 160.50,149.00 L 160.50,150.00 L 160.50,151.00 L 160.50,152.00 L 160.50,153.00 L 160.50,154.00 L 160.50,155.00 L 160.50,156.00 L 160.50,157.00 L 160.50,158.00 L 160.50,159.00 L 160.50,160.00 L 160.50,161.00 L 160.50,162.00 L 160.50,163.00 L 160.50,164.00 L 160.50,165.00 L 160.50,166.00 L 160.50,167.00 L 160.50,168.00 L 160.50,169.00 L 160.50,170.00 L 160.50,171.00 L 160.50,172.00 L 160.50,173.00 L 160.50,174.00 L 160.50,175.00 L 160.50,176.00 L 160.50,177.00 L 160.50,178.00 L 160.50,179.00 L 160.50,180.00 L 160.50,181.00 L 160.50,182.00 L 160.50,183.00 L 160.50,184.00 L 160.50,185.00 L 160.00,185.50 L 159.50,186.00 L 159.00,186.50 L 158.00,186.50 L 157.00,186.50 L 156.00,186.50 L 155.00,186.50 L 154.00,186.50 L 153.00,186.50 L 152.00,186.50 L 151.00,186.50 L 150.00,186.50 L 149.00,186.50 L 148.00,186.50 L 147.00,186.50 L 146.00,186.50 L 145.00,186.50 L 144.00,186.50 L 143.00,186.50 L 142.00,186.50 L 141.00,186.50 L 140.00,186.50 L 139.00,186.50 L 138.00,186.50 L 137.50,186.00 L 137.50,185.00 L 137.50,184.00 L 137.50,183.00 L 137.50,182.00 L 137.50,181.00 L 137.50,180.00 L 137.50,179.00 L 137.50,178.00 L 137.50,177.00 L 137.50,176.00 L 137.50,175.00 L 137.50,174.00 L 137.50,173.00 L 137.50,172.00 L 137.50,171.00 L 137.50,170.00 L 137.50,169.00 L 137.50,168.00 L 137.50,167.00 L 137.50,166.00 L 137.50,165.00 L 137.50,164.00 L 137.50,163.00 L 137.50,162.00 L 137.50,161.00 L 137.50,160.00 L 137.50,159.00 L 137.50,158.00 L 137.50,157.00 L 137.50,156.00 L 137.50,155.00 L 137.50,154.00 L 137.50,153.00 L 137.50,152.00 L 137.50,151.00 L 137.50,150.00 L 137.50,149.00 L 137.50,148.00 L 137.50,147.00 L 137.50,146.00 L 137.50,145.00 L 137.50,144.00 L 137.50,143.00 L 137.50,142.00 L 137.50,141.00 L 137.50,140.00 L 137.50,139.00 L 137.50,138.00 L 137.50,137.00 L 137.50,136.00 L 137.50,135.00 L 137.50,134.00 L 137.50,133.00 L 137.50,132.00 L 137.50,131.00 L 137.50,130.00 L 137.50,129.00 L 137.50,128.00 L 137.50,127.00 L 137.50,126.00 L 137.50,125.00 L 137.50,124.00 L 137.50,123.00 L 137.50,122.00 L 137.50,121.00 L 137.50,120.00 L 137.50,119.00 L 137.50,118.00 L 137.50,117.00 L 137.50,116.00 L 137.50,115.00 L 137.50,114.00 L 137.50,113.00 L 137.50,112.00 L 137.50,111.00 L 137.50,110.00 L 137.50,109.00 L 137.50,108.00 L 137.50,107.00 L 137.50,106.00 L 137.50,105.00 L 137.50,104.00 L 137.50,103.00 L 137.50,102.00 L 137.50,101.00 L 137.50,100.00 L 137.50,99.00 L 137.50,98.00 L 137.50,97.00 L 137.50,96.00 L 137.50,95.00 L 137.50,94.00 L 137.50,93.00 L 137.50,92.00 L 137.50,91.00 L 137.50,90.00 L 137.50,89.00 L 137.50,88.00 L 137.50,87.00 L 137.50,86.00 L 137.50,85.00 L 137.50,84.00 L 137.50,83.00 L 137.50,82.00 L 137.50,81.00 L 137.50,80.00 L 137.50,79.00 L 137.50,78.00 L 137.50,77.00 L 137.50,76.00 L 137.50,75.00 L 137.50,74.00 L 137.50,73.00 L 137.50,72.00 L 137.50,71.00 L 137.50,70.00 L 137.50,69.00 L 137.50,68.00 L 137.50,67.00 L 137.50,66.00 L 137.50,65.00 L 137.50,64.00 L 137.50,63.00 L 137.50,62.00 L 137.50,61.00 L 137.50,60.00 L 137.50,59.00 L 137.50,58.00 L 137.50,57.00 L 137.50,56.00 L 137.50,55.00 L 137.50,54.00 L 137.50,53.00 L 137.50,52.00 L 137.50,51.00 L 137.50,50.00 L 137.50,49.00 L 137.50,48.00 L 137.50,47.00 L 137.50,46.00 L 137.50,45.00 L 137.50,44.00 L 137.50,43.00 L 137.50,42.00 L 137.50,41.00 L 138.00,40.50 L 139.00,40.50 L 140.00,40.50 L 141.00,40.50 L 142.00,40.50 L 143.00,40.50 L 144.00,40.50 L 145.00,40.50 L 146.00,40.50 L 147.00,40.50 L 148.00,40.50 L 149.00,40.50 L 150.00,40.50 L 151.00,40.50 L 152.00,40.50 L 153.00,40.50 L 154.00,40.50 L 155.00,40.50 L 156.00,40.50 L 157.00,40.50 L 158.00,40.50 L 159.00,40.50 L 160.00,40.50 L 160.50,41.00 L 161.00,41.50 L 162.00,41.50 L 162.50,42.00 L 162.50,43.00 L 163.00,43.50 L 163.50,44.00 L 164.00,44.50 L 164.50,45.00 L 164.50,46.00 L 165.00,46.50 L 165.50,47.00 L 165.50,48.00 L 166.00,48.50 L 166.50,49.00 L 167.00,49.50 L 167.50,50.00 L 167.50,51.00 L 168.00,51.50 L 168.50,52.00 L 168.50,53.00 L 169.00,53.50 L 169.50,54.00 L 170.00,54.50 L 170.50,55.00 L 170.50,56.00 L 171.00,56.50 L 171.50,57.00 L 171.50,58.00 L 172.00,58.50 L 172.50,59.00 L 173.00,59.50 L 173.50,60.00 L 173.50,61.00 L 174.00,61.50 L 174.50,62.00 L 175.00,62.50 L 175.50,63.00 L 175.50,64.00 L 176.00,64.50 L 176.50,65.00 L 176.50,66.00 L 177.00,66.50 L 177.50,67.00 L 178.00,67.50 L 178.50,68.00 L 178.50,69.00 L 179.00,69.50 L 179.50,70.00 L 179.50,71.00 L 180.00,71.50 L 180.50,72.00 L 180.50,73.00 L 181.00,73.50 L 181.50,74.00 L 182.00,74.50 L 182.50,75.00 L 182.50,76.00 L 183.00,76.50 L 183.50,77.00 L 184.00,77.50 L 184.50,78.00 L 184.50,79.00 L 185.00,79.50 L 185.50,80.00 L 185.50,81.00 L 185.50,82.00 L 186.00,82.50 L 187.00,82.50 L 187.50,83.00 L 187.50,84.00 L 188.00,84.50 L 188.50,85.00 L 188.50,86.00 L 189.00,86.50 L 189.50,87.00 L 190.00,87.50 L 190.50,88.00 L 190.50,89.00 L 191.00,89.50 L 191.50,90.00 L 191.50,91.00 L 191.50,92.00 L 192.00,92.50 L 193.00,92.50 L 193.50,93.00 L 193.00,93.50 L 192.50,94.00 L 193.00,94.50 L 194.00,94.50 L 194.50,95.00 L 194.50,96.00 L 195.00,96.50 L 195.50,97.00 L 196.00,97.50 L 196.50,98.00 L 196.50,99.00 L 197.00,99.50 L 197.50,100.00 L 197.50,101.00 L 197.50,102.00 L 198.00,102.50 L 199.00,102.50 L 200.00,102.50 L 201.00,102.50 L 201.50,102.00 L 201.50,101.00 L 201.50,100.00 L 202.00,99.50 L 203.00,99.50 L 203.50,99.00 L 203.00,98.50 L 202.50,98.00 L 203.00,97.50 L 204.00,97.50 L 204.50,97.00 L 204.50,96.00 L 204.50,95.00 L 205.00,94.50 L 206.00,94.50 L 206.50,94.00 L 206.00,93.50 L 205.50,93.00 L 206.00,92.50 L 207.00,92.50 L 207.50,92.00 L 207.50,91.00 L 207.50,90.00 L 208.00,89.50 L 209.00,89.50 L 209.50,89.00 L 209.00,88.50 L 208.50,88.00 L 209.00,87.50 L 209.50,87.00 L 210.00,86.50 L 210.50,86.00 L 210.50,85.00 L 211.00,84.50 L 211.50,84.00 L 211.50,83.00 L 212.00,82.50 L 213.00,82.50 L 213.50,82.00 L 213.50,81.00 L 213.50,80.00 L 214.00,79.50 L 215.00,79.50 L 215.50,79.00 L 215.00,78.50 L 214.50,78.00 L 215.00,77.50 L 216.00,77.50 L 216.50,77.00 L 216.50,76.00 L 216.50,75.00 L 217.00,74.50 L 217.50,74.00 L 217.50,73.00 L 218.00,72.50 L 218.50,72.00 L 219.00,71.50 L 219.50,71.00 L 219.50,70.00 L 220.00,69.50 L 220.50,69.00 L 220.50,68.00 L 221.00,67.50 L 222.00,67.50 L 222.50,67.00 L 223.00,66.50 L 223.50,66.00 L 223.00,65.50 L 222.50,65.00 L 223.00,64.50 L 224.00,64.50 L 224.50,64.00 L 224.00,63.50 L 223.50,63.00 L 224.00,62.50 L 225.00,62.50 L 225.50,62.00 L 225.50,61.00 L 225.50,60.00 L 226.00,59.50 L 227.00,59.50 L 227.50,59.00 L 227.00,58.50 L 226.50,58.00 L 227.00,57.50 L 227.50,57.00 L 228.00,56.50 L 228.50,56.00 L 228.50,55.00 L 229.00,54.50 L 229.50,54.00 L 229.50,53.00 L 230.00,52.50 L 231.00,52.50 L 231.50,52.00 L 231.50,51.00 L 231.50,50.00 L 232.00,49.50 L 232.50,49.00 L 232.50,48.00 L 233.00,47.50 L 234.00,47.50 L 234.50,47.00 L 235.00,46.50 L 235.50,46.00 L 235.00,45.50 L 234.50,45.00 L 235.00,44.50 L 235.50,44.00 L 235.50,43.00 L 236.00,42.50 L 236.50,42.00 L 237.00,41.50 L 238.00,41.50 L 238.50,41.00 L 239.00,40.50 L 240.00,40.50 L 241.00,40.50 L 242.00,40.50 L 243.00,40.50 L 244.00,40.50 L 245.00,40.50 L 246.00,40.50 L 247.00,40.50 L 248.00,40.50 L 249.00,40.50 L 250.00,40.50 L 251.00,40.50 L 252.00,40.50 L 253.00,40.50 L 254.00,40.50 L 255.00,40.50 L 256.00,40.50 L 257.00,40.50 L 258.00,40.50 L 259.00,40.50 L 260.00,40.50 L 260.50,41.00 L 261.00,41.50 L 261.50,42.00 L 261.50,43.00 L 261.50,44.00 L 261.50,45.00 L 261.50,46.00 L 261.50,47.00 L 261.50,48.00 L 261.50,49.00 L 261.50,50.00 L 261.50,51.00 L 261.50,52.00 L 261.50,53.00 L 261.50,54.00 L 261.50,55.00 L 261.50,56.00 L 261.50,57.00 L 261.50,58.00 L 261.50,59.00 L 261.50,60.00 L 261.50,61.00 L 261.50,62.00 L 261.50,63.00 L 261.50,64.00 L 261.50,65.00 L 261.50,66.00 L 261.50,67.00 L 261.50,68.00 L 261.50,69.00 L 261.50,70.00 L 261.50,71.00 L 261.50,72.00 L 261.50,73.00 L 261.50,74.00 L 261.50,75.00 L 261.50,76.00 L 261.50,77.00 L 261.50,78.00 L 261.50,79.00 L 261.50,80.00 L 261.50,81.00 L 261.50,82.00 L 261.50,83.00 L 261.50,84.00 L 261.50,85.00 L 261.50,86.00 L 261.50,87.00 L 261.50,88.00 L 261.50,89.00 L 261.50,90.00 L 261.50,91.00 L 261.50,92.00 L 261.50,93.00 L 261.50,94.00 L 261.50,95.00 L 261.50,96.00 L 261.50,97.00 L 261.50,98.00 L 261.50,99.00 L 261.50,100.00 L 261.50,101.00 L 261.50,102.00 L 261.50,103.00 L 261.50,104.00 L 261.50,105.00 L 261.50,106.00 L 261.50,107.00 L 261.50,108.00 L 261.50,109.00 L 261.50,110.00 L 261.50,111.00 L 261.50,112.00 L 261.50,113.00 L 261.50,114.00 L 261.50,115.00 L 261.50,116.00 L 261.50,117.00 L 261.50,118.00 L 261.50,119.00 L 261.50,120.00 L 261.50,121.00 L 262.00,121.50 L 262.50,122.00 L 262.50,123.00 L 262.50,124.00 L 262.50,125.00 L 262.50,126.00 L 263.00,126.50 L 263.50,127.00 L 263.50,128.00 L 263.50,129.00 L 264.00,129.50 L 264.50,130.00 L 264.50,131.00 L 264.50,132.00 L 265.00,132.50 L 265.50,133.00 L 265.50,134.00 L 265.50,135.00 L 266.00,135.50 L 266.50,136.00 L 266.50,137.00 L 267.00,137.50 L 267.50,138.00 L 267.50,139.00 L 268.00,139.50 L 268.50,140.00 L 269.00,140.50 L 269.50,141.00 L 269.50,142.00 L 270.00,142.50 L 270.50,143.00 L 271.00,143.50 L 271.50,144.00 L 271.50,145.00 L 272.00,145.50 L 272.50,146.00 L 273.00,146.50 L 273.50,147.00 L 274.00,147.50 L 274.50,148.00 L 275.00,148.50 L 275.50,149.00 L 276.00,149.50 L 276.50,150.00 L 277.00,150.50 L 277.50,151.00 L 278.00,151.50 L 278.50,152.00 L 279.00,152.50 L 279.50,153.00 L 280.00,153.50 L 281.00,153.50 L 281.50,154.00 L 282.00,154.50 L 282.50,155.00 L 283.00,155.50 L 283.50,156.00 L 284.00,156.50 L 285.00,156.50 L 285.50,157.00 L 286.00,157.50 L 287.00,157.50 L 287.50,158.00 L 288.00,158.50 L 289.00,158.50 L 289.50,159.00 L 290.00,159.50 L 291.00,159.50 L 291.50,160.00 L 292.00,160.50 L 293.00,160.50 L 294.00,160.50 L 294.50,161.00 L 295.00,161.50 L 296.00,161.50 L 297.00,161.50 L 297.50,162.00 L 298.00,162.50 L 299.00,162.50 L 300.00,162.50 L 301.00,162.50 L 301.50,163.00 L 302.00,163.50 L 303.00,163.50 L 304.00,163.50 L 305.00,163.50 L 306.00,163.50 L 307.00,163.50 L 308.00,163.50 L 309.00,163.50 L 310.00,163.50 L 311.00,163.50 L 312.00,163.50 L 313.00,163.50 L 314.00,163.50 L 315.00,163.50 L 316.00,163.50 L 317.00,163.50 L 318.00,163.50 L 319.00,163.50 L 320.00,163.50 L 321.00,163.50 L 322.00,163.50 L 323.00,163.50 L 324.00,163.50 L 324.50,163.00 L 325.00,162.50 L 326.00,162.50 L 327.00,162.50 L 328.00,162.50 L 328.50,162.00 L 329.00,161.50 L 330.00,161.50 L 331.00,161.50 L 332.00,161.50 L 332.50,161.00 L 333.00,160.50 L 334.00,160.50 L 335.00,160.50 L 335.50,160.00 L 336.00,159.50 L 337.00,159.50 L 338.00,159.50 L 338.50,159.00 L 339.00,158.50 L 340.00,158.50 L 341.00,158.50 L 341.50,158.00 L 342.00,157.50 L 343.00,157.50 L 343.50,157.00 L 344.00,156.50 L 345.00,156.50 L 345.50,156.00 L 346.00,155.50 L 347.00,155.50 L 347.50,155.00 L 348.00,154.50 L 348.50,154.00 L 349.00,153.50 L 350.00,153.50 L 350.50,153.00 L 350.50,152.00 L 350.50,151.00 L 350.50,150.00 L 350.50,149.00 L 350.50,148.00 L 350.50,147.00 L 350.50,146.00 L 350.50,145.00 L 350.50,144.00 L 350.50,143.00 L 350.50,142.00 L 350.50,141.00 L 350.50,140.00 L 350.50,139.00 L 350.50,138.00 L 350.50,137.00 L 350.50,136.00 L 350.50,135.00 L 350.50,134.00 L 350.50,133.00 L 350.50,132.00 L 350.50,131.00 L 350.50,130.00 L 350.50,129.00 L 350.50,128.00 L 350.50,127.00 L 350.50,126.00 L 350.50,125.00 L 350.00,124.50 L 349.00,124.50 L 348.00,124.50 L 347.00,124.50 L 346.00,124.50 L 345.00,124.50 L 344.00,124.50 L 343.00,124.50 L 342.00,124.50 L 341.00,124.50 L 340.00,124.50 L 339.00,124.50 L 338.00,124.50 L 337.00,124.50 L 336.00,124.50 L 335.00,124.50 L 334.00,124.50 L 333.00,124.50 L 332.00,124.50 L 331.00,124.50 L 330.00,124.50 L 329.00,124.50 L 328.00,124.50 L 327.00,124.50 L 326.00,124.50 L 325.00,124.50 L 324.00,124.50 L 323.00,124.50 L 322.00,124.50 L 321.00,124.50 L 320.00,124.50 L 319.00,124.50 L 318.00,124.50 L 317.00,124.50 L 316.00,124.50 L 315.00,124.50 L 314.00,124.50 L 313.00,124.50 L 312.00,124.50 L 311.00,124.50 L 310.00,124.50 L 309.00,124.50 L 308.00,124.50 L 307.00,124.50 L 306.00,124.50 L 305.00,124.50 L 304.50,124.00 L 304.50,123.00 L 304.50,122.00 L 304.50,121.00 L 304.50,120.00 L 304.50,119.00 L 304.50,118.00 L 304.50,117.00 L 304.50,116.00 L 304.50,115.00 L 304.50,114.00 L 304.50,113.00 L 304.50,112.00 L 304.50,111.00 L 304.50,110.00 L 304.50,109.00 L 304.50,108.00 L 304.50,107.00 L 304.50,106.00 L 304.50,105.00 L 304.50,104.00 L 304.50,103.00 L 305.00,102.50 L 306.00,102.50 L 307.00,102.50 L 308.00,102.50 L 309.00,102.50 L 310.00,102.50 L 311.00,102.50 L 312.00,102.50 L 313.00,102.50 L 314.00,102.50 L 315.00,102.50 L 316.00,102.50 L 317.00,102.50 L 318.00,102.50 L 319.00,102.50 L 320.00,102.50 L 321.00,102.50 L 322.00,102.50 L 323.00,102.50 L 324.00,102.50 L 325.00,102.50 L 326.00,102.50 L 327.00,102.50 L 328.00,102.50 L 329.00,102.50 L 330.00,102.50 L 331.00,102.50 L 332.00,102.50 L 333.00,102.50 L 334.00,102.50 L 335.00,102.50 L 336.00,102.50 L 337.00,102.50 L 338.00,102.50 L 339.00,102.50 L 340.00,102.50 L 341.00,102.50 L 342.00,102.50 L 343.00,102.50 L 344.00,102.50 L 345.00,102.50 L 346.00,102.50 L 347.00,102.50 L 348.00,102.50 L 349.00,102.50 L 350.00,102.50 L 351.00,102.50 L 352.00,102.50 L 353.00,102.50 L 354.00,102.50 L 355.00,102.50 L 356.00,102.50 L 357.00,102.50 L 358.00,102.50 L 359.00,102.50 L 360.00,102.50 L 361.00,102.50 L 362.00,102.50 L 363.00,102.50 L 364.00,102.50 L 365.00,102.50 L 366.00,102.50 L 367.00,102.50 L 368.00,102.50 L 369.00,102.50 L 370.00,102.50 L 371.00,102.50 L 372.00,102.50 L 373.00,102.50 L 373.50,103.00 L 373.50,104.00 L 373.50,105.00 L 373.00,105.50 L 372.50,106.00 L 372.50,107.00 L 372.50,108.00 L 372.50,109.00 L 372.50,110.00 L 372.50,111.00 L 372.50,112.00 L 372.50,113.00 L 372.50,114.00 L 372.50,115.00 L 372.50,116.00 L 372.50,117.00 L 372.50,118.00 L 372.50,119.00 L 372.50,120.00 L 373.00,120.50 L 373.50,121.00 L 373.00,121.50 L 372.50,122.00 L 372.50,123.00 L 372.50,124.00 L 372.50,125.00 L 372.50,126.00 L 372.50,127.00 L 372.50,128.00 L 372.50,129.00 L 372.50,130.00 L 372.50,131.00 L 372.50,132.00 L 372.50,133.00 L 372.50,134.00 L 372.50,135.00 L 372.50,136.00 L 372.50,137.00 L 372.50,138.00 L 372.50,139.00 L 372.50,140.00 L 372.50,141.00 L 372.50,142.00 L 372.50,143.00 L 372.50,144.00 L 372.50,145.00 L 373.00,145.50 L 373.50,146.00 L 373.50,147.00 L 373.00,147.50 L 372.50,148.00 L 372.50,149.00 L 372.50,150.00 L 372.50,151.00 L 372.50,152.00 L 372.50,153.00 L 372.50,154.00 L 372.50,155.00 L 372.50,156.00 L 372.50,157.00 L 372.50,158.00 L 372.50,159.00 L 372.50,160.00 L 373.00,160.50 L 373.50,161.00 L 373.50,162.00 L 373.50,163.00 L 373.50,164.00 L 373.50,165.00 L 373.00,165.50 L 372.50,166.00 L 372.00,166.50 L 371.50,167.00 L 371.00,167.50 L 370.00,167.50 L 369.50,168.00 L 369.00,168.50 L 368.50,169.00 L 368.00,169.50 L 367.00,169.50 L 366.50,170.00 L 366.00,170.50 L 365.50,171.00 L 365.00,171.50 L 364.00,171.50 L 363.50,172.00 L 363.00,172.50 L 362.50,173.00 L 362.00,173.50 L 361.00,173.50 L 360.50,174.00 L 360.00,174.50 L 359.00,174.50 L 358.50,175.00 L 358.00,175.50 L 357.00,175.50 L 356.50,176.00 L 356.00,176.50 L 355.00,176.50 L 354.50,177.00 L 354.00,177.50 L 353.00,177.50 L 352.50,178.00 L 352.00,178.50 L 351.00,178.50 L 350.50,179.00 L 350.00,179.50 L 349.00,179.50 L 348.50,180.00 L 348.00,180.50 L 347.00,180.50 L 346.00,180.50 L 345.50,181.00 L 345.00,181.50 L 344.00,181.50 L 343.00,181.50 L 342.50,182.00 L 342.00,182.50 L 341.00,182.50 L 340.00,182.50 L 339.50,183.00 L 339.00,183.50 L 338.00,183.50 L 337.00,183.50 L 336.00,183.50 L 335.50,184.00 L 335.00,184.50 L 334.00,184.50 L 333.00,184.50 L 332.00,184.50 L 331.00,184.50 L 330.50,185.00 L 330.00,185.50 L 329.00,185.50 L 328.00,185.50 L 327.00,185.50 L 326.00,185.50 L 325.50,186.00 L 325.00,186.50 Z"></path><path d="M 352.00,84.50 L 351.50,84.00 L 351.00,83.50 L 350.50,83.00 L 350.00,82.50 L 349.50,82.00 L 349.50,81.00 L 349.00,80.50 L 348.50,80.00 L 348.00,79.50 L 347.50,79.00 L 347.00,78.50 L 346.50,78.00 L 346.00,77.50 L 345.50,77.00 L 345.00,76.50 L 344.50,76.00 L 344.00,75.50 L 343.50,75.00 L 343.00,74.50 L 342.00,74.50 L 341.50,74.00 L 341.00,73.50 L 340.50,73.00 L 340.00,72.50 L 339.50,72.00 L 339.00,71.50 L 338.00,71.50 L 337.50,71.00 L 337.00,70.50 L 336.50,70.00 L 336.00,69.50 L 335.00,69.50 L 334.50,69.00 L 334.00,68.50 L 333.00,68.50 L 332.50,68.00 L 332.00,67.50 L 331.00,67.50 L 330.50,67.00 L 330.00,66.50 L 329.00,66.50 L 328.00,66.50 L 327.50,66.00 L 327.00,65.50 L 326.00,65.50 L 325.00,65.50 L 324.50,65.00 L 324.00,64.50 L 323.00,64.50 L 322.00,64.50 L 321.50,64.00 L 321.00,63.50 L 320.00,63.50 L 319.00,63.50 L 318.00,63.50 L 317.00,63.50 L 316.00,63.50 L 315.00,63.50 L 314.00,63.50 L 313.00,63.50 L 312.50,63.00 L 312.00,62.50 L 311.00,62.50 L 310.00,62.50 L 309.50,63.00 L 309.00,63.50 L 308.00,63.50 L 307.00,63.50 L 306.00,63.50 L 305.00,63.50 L 304.00,63.50 L 303.00,63.50 L 302.00,63.50 L 301.00,63.50 L 300.50,64.00 L 300.00,64.50 L 299.00,64.50 L 298.00,64.50 L 297.00,64.50 L 296.50,65.00 L 296.00,65.50 L 295.00,65.50 L 294.00,65.50 L 293.50,66.00 L 293.00,66.50 L 292.00,66.50 L 291.50,67.00 L 291.00,67.50 L 290.00,67.50 L 289.00,67.50 L 288.50,68.00 L 288.00,68.50 L 287.00,68.50 L 286.50,69.00 L 286.00,69.50 L 285.50,70.00 L 285.00,70.50 L 284.00,70.50 L 283.50,71.00 L 283.00,71.50 L 282.50,72.00 L 282.00,72.50 L 281.00,72.50 L 280.50,73.00 L 280.00,73.50 L 279.50,74.00 L 279.00,74.50 L 278.50,75.00 L 278.00,75.50 L 277.50,76.00 L 277.00,76.50 L 276.50,77.00 L 276.00,77.50 L 275.50,78.00 L 275.00,78.50 L 274.50,79.00 L 274.00,79.50 L 273.50,80.00 L 273.00,80.50 L 272.50,81.00 L 272.00,81.50 L 271.50,82.00 L 271.00,82.50 L 270.50,82.00 L 270.50,81.00 L 270.50,80.00 L 270.50,79.00 L 270.50,78.00 L 270.50,77.00 L 270.50,76.00 L 270.50,75.00 L 270.50,74.00 L 270.50,73.00 L 270.50,72.00 L 270.50,71.00 L 270.50,70.00 L 270.50,69.00 L 270.50,68.00 L 270.50,67.00 L 270.50,66.00 L 270.50,65.00 L 270.50,64.00 L 270.50,63.00 L 270.50,62.00 L 270.50,61.00 L 270.50,60.00 L 270.50,59.00 L 270.50,58.00 L 270.50,57.00 L 270.50,56.00 L 270.50,55.00 L 270.50,54.00 L 270.50,53.00 L 271.00,52.50 L 271.50,52.00 L 272.00,51.50 L 272.50,51.00 L 273.00,50.50 L 274.00,50.50 L 274.50,50.00 L 275.00,49.50 L 276.00,49.50 L 276.50,49.00 L 277.00,48.50 L 278.00,48.50 L 278.50,48.00 L 279.00,47.50 L 280.00,47.50 L 280.50,47.00 L 281.00,46.50 L 282.00,46.50 L 282.50,46.00 L 283.00,45.50 L 284.00,45.50 L 284.50,45.00 L 285.00,44.50 L 286.00,44.50 L 287.00,44.50 L 287.50,44.00 L 288.00,43.50 L 289.00,43.50 L 290.00,43.50 L 291.00,43.50 L 291.50,43.00 L 292.00,42.50 L 293.00,42.50 L 294.00,42.50 L 295.00,42.50 L 295.50,42.00 L 296.00,41.50 L 297.00,41.50 L 298.00,41.50 L 299.00,41.50 L 300.00,41.50 L 300.50,41.00 L 301.00,40.50 L 302.00,40.50 L 303.00,40.50 L 304.00,40.50 L 305.00,40.50 L 306.00,40.50 L 307.00,40.50 L 308.00,40.50 L 309.00,40.50 L 310.00,40.50 L 311.00,40.50 L 312.00,40.50 L 313.00,40.50 L 314.00,40.50 L 315.00,40.50 L 316.00,40.50 L 317.00,40.50 L 318.00,40.50 L 319.00,40.50 L 320.00,40.50 L 320.50,41.00 L 321.00,41.50 L 322.00,41.50 L 323.00,41.50 L 324.00,41.50 L 325.00,41.50 L 326.00,41.50 L 326.50,42.00 L 327.00,42.50 L 328.00,42.50 L 329.00,42.50 L 330.00,42.50 L 330.50,43.00 L 331.00,43.50 L 332.00,43.50 L 333.00,43.50 L 333.50,44.00 L 334.00,44.50 L 335.00,44.50 L 336.00,44.50 L 336.50,45.00 L 337.00,45.50 L 338.00,45.50 L 338.50,46.00 L 339.00,46.50 L 340.00,46.50 L 341.00,46.50 L 341.50,47.00 L 342.00,47.50 L 343.00,47.50 L 343.50,48.00 L 344.00,48.50 L 345.00,48.50 L 345.50,49.00 L 346.00,49.50 L 346.50,50.00 L 347.00,50.50 L 348.00,50.50 L 348.50,51.00 L 349.00,51.50 L 350.00,51.50 L 350.50,52.00 L 351.00,52.50 L 351.50,53.00 L 352.00,53.50 L 352.50,54.00 L 353.00,54.50 L 354.00,54.50 L 354.50,55.00 L 355.00,55.50 L 355.50,56.00 L 356.00,56.50 L 356.50,57.00 L 357.00,57.50 L 358.00,57.50 L 358.50,58.00 L 359.00,58.50 L 359.50,59.00 L 360.00,59.50 L 360.50,60.00 L 361.00,60.50 L 361.50,61.00 L 362.00,61.50 L 362.50,62.00 L 363.00,62.50 L 363.50,63.00 L 364.00,63.50 L 364.50,64.00 L 365.00,64.50 L 365.50,65.00 L 365.50,66.00 L 366.00,66.50 L 366.50,67.00 L 367.00,67.50 L 367.50,68.00 L 368.00,68.50 L 368.50,69.00 L 368.50,70.00 L 368.00,70.50 L 367.50,71.00 L 367.00,71.50 L 366.00,71.50 L 365.50,72.00 L 365.00,72.50 L 364.50,73.00 L 364.00,73.50 L 363.50,74.00 L 363.00,74.50 L 362.50,75.00 L 362.00,75.50 L 361.50,76.00 L 361.00,76.50 L 360.50,77.00 L 360.00,77.50 L 359.50,78.00 L 359.00,78.50 L 358.50,79.00 L 358.00,79.50 L 357.50,80.00 L 357.00,80.50 L 356.50,81.00 L 356.00,81.50 L 355.00,81.50 L 354.50,82.00 L 354.00,82.50 L 353.50,83.00 L 353.00,83.50 L 352.50,84.00 L 352.00,84.50 Z"></path><path d="M 261.00,186.50 L 260.00,186.50 L 259.00,186.50 L 258.00,186.50 L 257.00,186.50 L 256.00,186.50 L 255.00,186.50 L 254.00,186.50 L 253.00,186.50 L 252.00,186.50 L 251.00,186.50 L 250.00,186.50 L 249.00,186.50 L 248.00,186.50 L 247.00,186.50 L 246.00,186.50 L 245.00,186.50 L 244.00,186.50 L 243.00,186.50 L 242.00,186.50 L 241.00,186.50 L 240.00,186.50 L 239.50,186.00 L 239.00,185.50 L 238.50,185.00 L 238.50,184.00 L 238.50,183.00 L 238.50,182.00 L 238.50,181.00 L 238.50,180.00 L 238.50,179.00 L 238.50,178.00 L 238.50,177.00 L 238.50,176.00 L 238.50,175.00 L 238.50,174.00 L 238.50,173.00 L 238.50,172.00 L 238.50,171.00 L 238.50,170.00 L 238.50,169.00 L 238.50,168.00 L 239.00,167.50 L 239.50,167.00 L 239.50,166.00 L 239.00,165.50 L 238.50,165.00 L 238.50,164.00 L 239.00,163.50 L 239.50,163.00 L 239.00,162.50 L 238.50,162.00 L 238.50,161.00 L 238.50,160.00 L 238.50,159.00 L 238.50,158.00 L 238.50,157.00 L 238.50,156.00 L 239.00,155.50 L 240.00,155.50 L 240.50,156.00 L 241.00,156.50 L 241.50,157.00 L 241.50,158.00 L 242.00,158.50 L 242.50,159.00 L 243.00,159.50 L 243.50,160.00 L 243.50,161.00 L 244.00,161.50 L 244.50,162.00 L 245.00,162.50 L 245.50,163.00 L 245.50,164.00 L 246.00,164.50 L 246.50,165.00 L 247.00,165.50 L 247.50,166.00 L 248.00,166.50 L 248.50,167.00 L 249.00,167.50 L 249.50,168.00 L 250.00,168.50 L 250.50,169.00 L 250.50,170.00 L 251.00,170.50 L 251.50,171.00 L 252.00,171.50 L 252.50,172.00 L 253.00,172.50 L 253.50,173.00 L 254.00,173.50 L 255.00,173.50 L 255.50,174.00 L 256.00,174.50 L 256.50,175.00 L 257.00,175.50 L 257.50,176.00 L 258.00,176.50 L 258.50,177.00 L 259.00,177.50 L 259.50,178.00 L 260.00,178.50 L 260.50,179.00 L 261.00,179.50 L 261.50,180.00 L 261.50,181.00 L 261.50,182.00 L 261.50,183.00 L 261.50,184.00 L 261.50,185.00 L 261.50,186.00 L 261.00,186.50 Z"></path></g></svg>